REM DIRINDEX 1\5,1\2\6,1\2\7,1\3\8,1\3\9,1\4\10,1\4\11,1\4\12
REM DIRNAME folder01,folder02,folder03,folder04,folder05,folder06,folder07,folder08,folder09,folder10,folder11,folder12
TITLE ""
FILE "EJE_DB3000_5th_5C_04.mp3" MP3
  TRACK 01 AUDIO
    TITLE "0:"
    INDEX 01 00:00:00
  TRACK 02 AUDIO
    TITLE "10:cjc026_10242"
    INDEX 01 00:00:05
  TRACK 03 AUDIO
    TITLE "0:"
    INDEX 01 00:00:72
  TRACK 04 AUDIO
    TITLE "11:cjc026_10243"
    INDEX 01 00:01:24
  TRACK 05 AUDIO
    TITLE "0:"
    INDEX 01 00:02:45
  TRACK 06 AUDIO
    TITLE "12:cjc026_10244"
    INDEX 01 00:02:71
  TRACK 07 AUDIO
    TITLE "0:"
    INDEX 01 00:03:63
  TRACK 08 AUDIO
    TITLE "10:cjc026_10245"
    INDEX 01 00:04:13
  TRACK 09 AUDIO
    TITLE "0:"
    INDEX 01 00:05:03
  TRACK 10 AUDIO
    TITLE "11:cjc026_10246"
    INDEX 01 00:05:28
  TRACK 11 AUDIO
    TITLE "0:"
    INDEX 01 00:06:41
  TRACK 12 AUDIO
    TITLE "12:cjc026_10247"
    INDEX 01 00:06:67
  TRACK 13 AUDIO
    TITLE "0:"
    INDEX 01 00:07:54
  TRACK 14 AUDIO
    TITLE "10:cjc026_10248"
    INDEX 01 00:08:05
  TRACK 15 AUDIO
    TITLE "0:"
    INDEX 01 00:09:00
  TRACK 16 AUDIO
    TITLE "11:cjc026_10249"
    INDEX 01 00:09:28
  TRACK 17 AUDIO
    TITLE "0:"
    INDEX 01 00:10:41
  TRACK 18 AUDIO
    TITLE "12:cjc026_10250"
    INDEX 01 00:10:68
  TRACK 19 AUDIO
    TITLE "0:"
    INDEX 01 00:11:62
  TRACK 20 AUDIO
    TITLE "10:cjc026_10251"
    INDEX 01 00:12:14
  TRACK 21 AUDIO
    TITLE "0:"
    INDEX 01 00:13:12
  TRACK 22 AUDIO
    TITLE "11:cjc026_10252"
    INDEX 01 00:13:39
  TRACK 23 AUDIO
    TITLE "0:"
    INDEX 01 00:14:47
  TRACK 24 AUDIO
    TITLE "12:cjc026_10253"
    INDEX 01 00:14:74
  TRACK 25 AUDIO
    TITLE "0:"
    INDEX 01 00:15:72
  TRACK 26 AUDIO
    TITLE "10:cjc026_10254"
    INDEX 01 00:16:24
  TRACK 27 AUDIO
    TITLE "0:"
    INDEX 01 00:17:18
  TRACK 28 AUDIO
    TITLE "11:cjc026_10255"
    INDEX 01 00:17:45
  TRACK 29 AUDIO
    TITLE "0:"
    INDEX 01 00:18:41
  TRACK 30 AUDIO
    TITLE "12:cjc026_10256"
    INDEX 01 00:18:68
  TRACK 31 AUDIO
    TITLE "0:"
    INDEX 01 00:19:62
  TRACK 32 AUDIO
    TITLE "10:cjc026_10257"
    INDEX 01 00:20:12
  TRACK 33 AUDIO
    TITLE "0:"
    INDEX 01 00:21:02
  TRACK 34 AUDIO
    TITLE "11:cjc026_10258"
    INDEX 01 00:21:29
  TRACK 35 AUDIO
    TITLE "0:"
    INDEX 01 00:22:46
  TRACK 36 AUDIO
    TITLE "12:cjc026_10259"
    INDEX 01 00:22:72
  TRACK 37 AUDIO
    TITLE "0:"
    INDEX 01 00:23:61
  TRACK 38 AUDIO
    TITLE "10:cjc026_10260"
    INDEX 01 00:24:14
  TRACK 39 AUDIO
    TITLE "0:"
    INDEX 01 00:25:05
  TRACK 40 AUDIO
    TITLE "11:cjc026_10261"
    INDEX 01 00:25:33
  TRACK 41 AUDIO
    TITLE "0:"
    INDEX 01 00:26:52
  TRACK 42 AUDIO
    TITLE "12:cjc026_10262"
    INDEX 01 00:27:02
  TRACK 43 AUDIO
    TITLE "0:"
    INDEX 01 00:27:71
  TRACK 44 AUDIO
    TITLE "10:cjc026_10263"
    INDEX 01 00:28:21
  TRACK 45 AUDIO
    TITLE "0:"
    INDEX 01 00:29:15
  TRACK 46 AUDIO
    TITLE "11:cjc026_10264"
    INDEX 01 00:29:40
  TRACK 47 AUDIO
    TITLE "0:"
    INDEX 01 00:30:30
  TRACK 48 AUDIO
    TITLE "12:cjc026_10265"
    INDEX 01 00:30:55
  TRACK 49 AUDIO
    TITLE "0:"
    INDEX 01 00:31:49
  TRACK 50 AUDIO
    TITLE "10:cjc026_10266"
    INDEX 01 00:32:01
  TRACK 51 AUDIO
    TITLE "0:"
    INDEX 01 00:32:64
  TRACK 52 AUDIO
    TITLE "11:cjc026_10267"
    INDEX 01 00:33:15
  TRACK 53 AUDIO
    TITLE "0:"
    INDEX 01 00:34:20
  TRACK 54 AUDIO
    TITLE "12:cjc026_10268"
    INDEX 01 00:34:45
  TRACK 55 AUDIO
    TITLE "0:"
    INDEX 01 00:35:35
  TRACK 56 AUDIO
    TITLE "10:cjc026_10269"
    INDEX 01 00:35:61
  TRACK 57 AUDIO
    TITLE "0:"
    INDEX 01 00:36:54
  TRACK 58 AUDIO
    TITLE "11:cjc026_10270"
    INDEX 01 00:37:07
  TRACK 59 AUDIO
    TITLE "0:"
    INDEX 01 00:37:67
  TRACK 60 AUDIO
    TITLE "12:cjc026_10271"
    INDEX 01 00:38:18
  TRACK 61 AUDIO
    TITLE "0:"
    INDEX 01 00:39:11
  TRACK 62 AUDIO
    TITLE "10:cjc026_10272"
    INDEX 01 00:39:41
  TRACK 63 AUDIO
    TITLE "0:"
    INDEX 01 00:40:30
  TRACK 64 AUDIO
    TITLE "11:cjc026_10273"
    INDEX 01 00:40:58
  TRACK 65 AUDIO
    TITLE "0:"
    INDEX 01 00:41:59
  TRACK 66 AUDIO
    TITLE "12:cjc026_10274"
    INDEX 01 00:42:12
  TRACK 67 AUDIO
    TITLE "0:"
    INDEX 01 00:43:01
  TRACK 68 AUDIO
    TITLE "10:cjc026_10275"
    INDEX 01 00:43:29
  TRACK 69 AUDIO
    TITLE "0:"
    INDEX 01 00:44:24
  TRACK 70 AUDIO
    TITLE "11:cjc026_10276"
    INDEX 01 00:44:52
  TRACK 71 AUDIO
    TITLE "0:"
    INDEX 01 00:45:45
  TRACK 72 AUDIO
    TITLE "12:cjc026_10277"
    INDEX 01 00:45:71
  TRACK 73 AUDIO
    TITLE "0:"
    INDEX 01 00:46:68
  TRACK 74 AUDIO
    TITLE "10:cjc026_10278"
    INDEX 01 00:47:19
  TRACK 75 AUDIO
    TITLE "0:"
    INDEX 01 00:48:28
  TRACK 76 AUDIO
    TITLE "11:cjc026_10279"
    INDEX 01 00:48:51
  TRACK 77 AUDIO
    TITLE "0:"
    INDEX 01 00:49:69
  TRACK 78 AUDIO
    TITLE "12:cjc026_10280"
    INDEX 01 00:50:17
  TRACK 79 AUDIO
    TITLE "0:"
    INDEX 01 00:51:24
